<?xml version="1.0" encoding="UTF-8" standalone="no"?>
<!DOCTYPE svg PUBLIC "-//W3C//DTD SVG 20010904//EN" "http://www.w3.org/TR/2001/REC-SVG-20010904/DTD/svg10.dtd">
<svg version="1.0" xmlns="http://www.w3.org/2000/svg" width="836.000000pt" height="277.000000pt" viewBox="0 0 836.000000 277.000000" preserveAspectRatio="xMidYMid meet"><g transform="translate(0.000000,277.000000) scale(0.100000,-0.100000)" fill="#E50914" stroke="none"><path d="M1711 2645 c-161 -36 -281 -125 -346 -257 -64 -132 -65 -135 -65 -913 0 -768 1 -778 60 -895 78 -155 221 -230 442 -230 334 0 565 149 637 410 20 72 21 98 21 770 0 755 0 752 -56 864 -57 114 -143 186 -280 232 -67 23 -99 28 -214 30 -93 3 -155 -1 -199 -11z m279 -327 c30 -16 50 -36 64 -63 21 -39 21 -53 21 -747 l0 -706 -30 -43 c-44 -61 -93 -84 -185 -84 -88 0 -125 20 -156 82 -18 36 -19 74 -19 743 l0 705 25 45 c33 60 92 90 175 90 43 0 73 -6 105 -22z"/><path d="M3932 1563 l3 -1078 188 -3 187 -2 0 470 0 470 250 0 251 0 -3 153 -3 152 -247 3 -248 2 0 300 0 300 320 0 320 0 0 148 0 149 -247 6 c-137 4 -366 7 -511 7 l-262 0 2 -1077z"/><path d="M2730 1537 l0 -1092 98 7 c53 3 280 12 505 19 l407 13 0 154 0 154 -192 -6 c-106 -4 -248 -9 -315 -12 l-123 -6 0 931 0 931 -190 0 -190 0 0 -1093z"/><path d="M5140 1550 c0 -1022 1 -1080 18 -1080 95 -1 905 -49 953 -56 l39 -7 0 161 0 160 -112 6 c-390 21 -483 26 -500 26 -17 0 -18 37 -18 935 l0 935 -190 0 -190 0 0 -1080z"/><path d="M6340 1515 c0 -884 3 -1116 13 -1119 6 -2 84 -9 172 -16 88 -6 168 -14 178 -17 16 -4 17 55 17 1131 l0 1136 -190 0 -190 0 0 -1115z"/><path d="M6930 2627 c0 -2 39 -107 86 -233 47 -126 142 -382 211 -568 l124 -339 -112 -291 c-61 -160 -159 -410 -217 -556 -57 -146 -106 -272 -109 -281 -4 -14 16 -18 134 -29 76 -8 158 -14 182 -15 l44 0 141 387 c78 214 143 388 147 388 3 0 60 -170 128 -377 67 -208 131 -400 141 -428 l18 -50 68 -7 c38 -4 126 -16 197 -26 95 -14 127 -16 127 -7 0 14 -100 307 -299 874 -72 206 -131 381 -131 390 0 10 27 91 61 182 118 318 338 927 345 953 l6 26 -178 0 -179 0 -74 -212 c-126 -364 -193 -549 -197 -545 -3 2 -62 172 -132 378 l-127 374 -45 7 c-46 7 -360 11 -360 5z"/><path d="M120 1400 l0 -1220 22 5 c43 9 504 69 778 100 74 8 154 18 178 21 l42 5 0 165 0 165 -42 -5 c-70 -9 -215 -25 -333 -36 -60 -6 -141 -15 -180 -19 -38 -5 -73 -6 -77 -4 -5 2 -8 463 -8 1024 l0 1019 -190 0 -190 0 0 -1220z"/></g></svg>